# xmcd
#
# Track frame offsets:
#	150
#	15040
#	33620
#	54147
#	75019
#	95086
#	112152
#	132696
#	152251
#	173837
#	191741
#	204336
#	222217
#	245131
#	265213
#	282126
#	301338
#
# Disc length: 4299 seconds
#
# Revision: 0
# Processed by: cddbd v1.5.2PL0 Copyright (c) Steve Scherf et al.
# Submitted via: EasyCDDAExtractor 12.1.0.1
#
DISCID=e010c911
DTITLE=Various Artist - 명작 가요 101 CD4
DYEAR=1900
DGENRE=
TTITLE0=엠씨더맥스 - 미련한 가슴아
TTITLE1=윤도현 - 끝이 아니길
TTITLE2=플라이투더스카이 - 가슴 아파도
TTITLE3=이현우 - 허락되지 않은 사랑
TTITLE4=김연우 - 헤어지자는 거짓말
TTITLE5=박혜경 - 바보
TTITLE6=이승열 - Be My Love
TTITLE7=윤종신 - 우리 이제 인연인가요
TTITLE8=저스트 - 그린로즈
TTITLE9=이윤종 - 눈을 감아요
TTITLE10=티비 - Come Back To Me
TTITLE11=임태경 - White Road
TTITLE12=플라워 - 한번도
TTITLE13=박기영 - 오후 3시의 사랑
TTITLE14=상상밴드 - Happy 2 Smile
TTITLE15=이상규 - Like Me
TTITLE16=소울디바 - 보낼 수 없는 사랑
EXTD=
EXTT0=
EXTT1=
EXTT2=
EXTT3=
EXTT4=
EXTT5=
EXTT6=
EXTT7=
EXTT8=
EXTT9=
EXTT10=
EXTT11=
EXTT12=
EXTT13=
EXTT14=
EXTT15=
EXTT16=
PLAYORDER=
